<?xml version="1.0" standalone="no"?>
<!DOCTYPE svg PUBLIC "-//W3C//DTD SVG 20010904//EN"
 "http://www.w3.org/TR/2001/REC-SVG-20010904/DTD/svg10.dtd">
<svg version="1.0" xmlns="http://www.w3.org/2000/svg"
 width="320.000000pt" height="320.000000pt" viewBox="0 0 320.000000 320.000000"
 preserveAspectRatio="xMidYMid meet">
<metadata>
Created by potrace 1.11, written by Peter Selinger 2001-2013
</metadata>
<g transform="translate(0.000000,320.000000) scale(0.100000,-0.100000)"
fill="#000000" stroke="none">
<path d="M719 3196 c-2 -2 -31 -6 -64 -10 -105 -11 -198 -36 -272 -74 -216
-110 -342 -305 -371 -570 -9 -87 -9 -1797 0 -1884 29 -272 158 -466 386 -577
64 -32 155 -56 252 -68 79 -10 1787 -11 1885 -1 276 27 471 155 584 386 24 47
43 105 42 127 0 2 5 19 10 37 5 18 13 62 17 98 9 86 9 1795 -1 1885 -24 223
-113 386 -277 514 -66 50 -190 100 -290 117 -25 4 -56 9 -70 12 -28 6 -1825
14 -1831 8z m1435 -651 c85 -17 192 -80 267 -156 107 -109 197 -301 224 -477
3 -20 10 -62 15 -92 15 -88 5 -476 -14 -538 -3 -9 -8 -33 -11 -52 -10 -59 -62
-204 -95 -266 -81 -148 -181 -241 -325 -299 -63 -26 -82 -29 -190 -29 -66 -1
-133 2 -150 5 -64 14 -147 52 -202 93 -182 134 -286 352 -322 676 -8 71 -6
356 3 410 2 14 7 43 10 65 33 208 125 404 240 513 152 144 329 191 550 147z
m-1102 -943 c0 -512 -3 -936 -6 -941 -5 -8 -38 -9 -88 -2 -5 1 -8 397 -8 881
0 484 -3 880 -6 880 -3 0 -76 -46 -162 -103 -87 -57 -176 -115 -198 -130 l-42
-26 -3 37 c-7 72 -3 77 109 150 59 38 148 96 197 128 88 57 148 77 189 64 18
-6 18 -39 18 -938z"/>
<path d="M1891 2454 c-239 -62 -380 -279 -437 -674 -8 -57 -8 -287 0 -360 33
-295 135 -513 290 -619 132 -90 335 -103 476 -31 175 89 301 317 337 610 10
82 10 345 0 428 -14 117 -58 276 -99 357 -120 236 -338 347 -567 289z"/>
</g>
</svg>
