<?xml version="1.0" encoding="UTF-8"?>
<svg width="70px" height="14px" viewBox="0 0 70 14" version="1.1" xmlns="http://www.w3.org/2000/svg" xmlns:xlink="http://www.w3.org/1999/xlink">
    <!-- Generator: Sketch 45.2 (43514) - http://www.bohemiancoding.com/sketch -->
    <title>uxabc</title>
    <desc>Created with Sketch.</desc>
    <defs></defs>
    <g id="Page-1" stroke="none" stroke-width="1" fill="none" fill-rule="evenodd">
        <g id="LG" transform="translate(-533.000000, -1524.000000)" fill="#000000">
            <g id="Group-9" transform="translate(389.000000, 1522.000000)">
                <path d="M213.925721,12.7807254 C212.677444,14.9875874 210.059954,16.3820557 207.201946,15.9072592 C204.549923,15.4666166 202.433674,13.4001647 202.010695,10.8279736 C201.3757,6.96669482 204.447534,3.62867002 208.317976,3.62867002 C210.726465,3.62867002 212.841509,4.93191547 213.925268,6.84730241 C214.103658,7.16256842 213.947586,7.55957005 213.603925,7.69603937 C213.298567,7.81747516 212.954152,7.68771985 212.801699,7.40427235 C211.948051,5.81553603 210.265637,4.72480322 208.317976,4.72480322 C205.502945,4.72480322 203.221726,7.01121154 203.221726,9.81430582 C203.221726,12.6174001 205.502945,14.9036625 208.317976,14.9036625 C210.265637,14.9036625 211.947901,13.8133675 212.801699,12.2244852 C212.954001,11.9410378 213.298717,11.8111365 213.604076,11.9327182 L213.604378,11.9328642 C213.947586,12.0693335 214.10396,12.4657513 213.925721,12.7807254 Z M187.834793,2 C188.192176,2 188.481852,2.28038241 188.481852,2.62629927 L188.481852,6.47882067 C189.471969,4.80557554 191.209875,3.69397095 193.384331,3.63150158 C196.560817,3.54013282 199.385047,5.76202838 199.885081,8.79967473 C200.52068,12.6613914 197.449147,16 193.578404,16 C189.580993,16 187.187734,13.2253672 187.187734,9.47705877 L187.187734,2.62629927 C187.187734,2.28038241 187.47741,2 187.834793,2 Z M184.038678,15.6868796 C183.681295,15.6868796 183.391619,15.4063512 183.391619,15.0604343 L183.391619,13.149718 C182.401653,14.8231091 180.663596,15.9347137 178.48914,15.997183 C175.312654,16.0884058 172.488424,13.8666562 171.98839,10.8290099 C171.352791,6.96729324 174.424324,3.62868462 178.295067,3.62868462 C182.292629,3.62868462 184.685737,6.40317143 184.685737,10.1514799 L184.685737,15.0604343 C184.685737,15.4063512 184.396061,15.6868796 184.038678,15.6868796 Z M169.908376,15.6868066 C169.751248,15.6868066 169.600755,15.6256508 169.490826,15.5169132 L164.640371,10.7225346 L159.789765,15.5169132 C159.679836,15.6256508 159.529343,15.6868066 159.372366,15.6868066 L159.372064,15.6868066 C158.85695,15.6868066 158.593814,15.0886769 158.950745,14.729332 L163.831359,9.81424744 L158.950745,4.8996007 C158.593965,4.54025584 158.857101,3.94212617 159.372064,3.94212617 L159.372366,3.94212617 C159.529494,3.94212617 159.679836,4.00342789 159.789765,4.11201952 L164.640371,8.90596024 L169.490826,4.11201952 C169.600755,4.00342789 169.751248,3.94212617 169.908376,3.94212617 C170.423339,3.94212617 170.686475,4.54025584 170.329545,4.8996007 L165.449383,9.81424744 L170.329696,14.729332 C170.686475,15.0886769 170.423339,15.6868066 169.908376,15.6868066 Z M156.516092,9.81426203 C156.516092,13.2280382 153.607116,15.9998978 150.258122,15.9998978 C146.908976,15.9998978 144,13.2280382 144,9.81426203 L144,4.56844004 C144,4.22252317 144.289676,3.94214076 144.647059,3.94214076 L144.647361,3.94214076 C145.004744,3.94214076 145.29442,4.22252317 145.29442,4.56844004 L145.29442,9.81426203 C145.29442,12.6173563 147.620877,14.9037646 150.258122,14.9037646 C152.895215,14.9037646 155.221974,12.6173563 155.221974,9.81426203 L155.221974,4.56844004 C155.221974,4.22252317 155.51165,3.94214076 155.869033,3.94214076 C156.226416,3.94214076 156.516092,4.22252317 156.516092,4.56844004 L156.516092,9.81426203 Z M193.578404,14.9037208 C196.393435,14.9037208 198.674654,12.6173125 198.674654,9.81421825 C198.674654,7.01126993 196.393435,4.7248616 193.578404,4.7248616 C190.763373,4.7248616 188.481852,7.01126993 188.481852,9.81421825 C188.481852,12.6173125 190.763373,14.9037208 193.578404,14.9037208 Z M178.295067,4.72481782 C175.480036,4.72481782 173.198968,7.01122614 173.198968,9.81432042 C173.198968,12.6174147 175.480036,14.9036771 178.295067,14.9036771 C181.110098,14.9036771 183.391619,12.6174147 183.391619,9.81432042 C183.391619,7.01122614 181.110098,4.72481782 178.295067,4.72481782 Z" id="uxabc"></path>
            </g>
        </g>
    </g>
</svg>